<?xml version="1.0" encoding="UTF-8"?>
<svg enable-background="new 0 0 511.448 511.448" version="1.1" viewBox="0 0 511.45 511.45" xml:space="preserve" xmlns="http://www.w3.org/2000/svg">
<path d="m494.88 83.4v130.23l-46.649-46.638c-13.565-13.565-35.636-13.565-49.201 0l-107.96 107.95-63.771-63.76c-13.565-13.565-35.636-13.565-49.201 0l-90.834 90.823v-218.6c0-10.052 8.174-18.227 18.227-18.227h371.16c10.052 1e-3 18.226 8.175 18.226 18.227zm-142.5 70.697c0-4.573-3.712-8.285-8.285-8.285h-19.232c-3.071-12.538-12.968-22.435-25.506-25.506v-19.232c0-4.573-3.712-8.285-8.285-8.285s-8.285 3.712-8.285 8.285v19.232c-12.538 3.071-22.435 12.968-25.506 25.506h-19.231c-4.573 0-8.285 3.712-8.285 8.285s3.712 8.285 8.285 8.285h19.232c3.071 12.538 12.968 22.435 25.506 25.506v19.232c0 4.573 3.712 8.285 8.285 8.285s8.285-3.712 8.285-8.285v-19.232c12.538-3.071 22.435-12.968 25.506-25.506h19.232c4.572 0 8.284-3.712 8.284-8.285z" fill="#fff"/>
	<g fill="#C2E95D">
	<path d="m494.88 237.07v120.28c0 10.052-8.174 18.227-18.227 18.227h-84.936l-88.923-88.923 107.94-107.96c7.114-7.103 18.668-7.103 25.782 0l58.359 58.368z"/>
		<path d="m215.59 222.88 152.68 152.69h-262.78c-10.052 0-18.227-8.174-18.227-18.227v-31.913l102.54-102.55c7.114-7.103 18.668-7.103 25.782 0z"/>
		<path d="m291.07 135.87c10.052 0 18.227 8.174 18.227 18.227s-8.174 18.227-18.227 18.227-18.227-8.174-18.227-18.227 8.175-18.227 18.227-18.227z"/>
</g>
	<g fill="#535757">
	<path d="m511.45 83.4v273.95c0 19.188-15.609 34.796-34.796 34.796h-35.901v9.389c0 4.573-3.712 8.285-8.285 8.285s-8.285-3.712-8.285-8.285v-9.389h-318.69c-19.188 0-34.796-15.609-34.796-34.796v-221.48h-1.812c-4.573 0-8.285-3.712-8.285-8.285s3.712-8.285 8.285-8.285h1.812v-35.9c0-19.188 15.609-34.796 34.796-34.796h371.16c19.187 0 34.796 15.609 34.796 34.796zm-16.57 273.95v-120.28l-58.358-58.369c-7.114-7.103-18.668-7.103-25.782 0l-107.95 107.96 88.923 88.923h84.936c10.053 0 18.227-8.174 18.227-18.226zm0-143.72v-130.23c0-10.052-8.174-18.227-18.227-18.227h-371.16c-10.052 0-18.227 8.174-18.227 18.227v218.6l90.834-90.823c13.565-13.565 35.636-13.565 49.201 0l63.771 63.76 107.96-107.94c13.565-13.565 35.636-13.565 49.201 0l46.649 46.637zm-126.6 161.95-152.68-152.69c-7.114-7.103-18.668-7.103-25.782 0l-102.54 102.56v31.913c0 10.052 8.174 18.227 18.227 18.227h262.78z"/>
		<path d="m433.72 428.9c4.319 1.491 6.617 6.208 5.114 10.538-2.53 7.324-7.534 13.675-14.073 17.884-1.381 0.895-2.938 1.315-4.474 1.315-2.717 0-5.391-1.337-6.97-3.8-2.474-3.844-1.37-8.97 2.474-11.444 3.435-2.209 6.064-5.545 7.39-9.378 1.492-4.32 6.22-6.617 10.539-5.115z"/>
		<path d="m385.75 446.27c4.573 0 8.285 3.712 8.285 8.285s-3.712 8.285-8.285 8.285h-17.674c-4.573 0-8.285-3.712-8.285-8.285s3.712-8.285 8.285-8.285h17.674z"/>
		<path d="m344.1 145.81c4.573 0 8.285 3.712 8.285 8.285s-3.712 8.285-8.285 8.285h-19.232c-3.071 12.538-12.968 22.435-25.506 25.506v19.232c0 4.573-3.712 8.285-8.285 8.285s-8.285-3.712-8.285-8.285v-19.232c-12.538-3.071-22.435-12.968-25.506-25.506h-19.231c-4.573 0-8.285-3.712-8.285-8.285s3.712-8.285 8.285-8.285h19.232c3.071-12.538 12.968-22.435 25.506-25.506v-19.232c0-4.573 3.712-8.285 8.285-8.285s8.285 3.712 8.285 8.285v19.232c12.538 3.071 22.435 12.968 25.506 25.506h19.231zm-34.796 8.285c0-10.052-8.174-18.227-18.227-18.227s-18.227 8.174-18.227 18.227 8.174 18.227 18.227 18.227 18.227-8.175 18.227-18.227z"/>
		<path d="m332.73 446.27c4.573 0 8.285 3.712 8.285 8.285s-3.712 8.285-8.285 8.285h-17.674c-4.573 0-8.285-3.712-8.285-8.285s3.712-8.285 8.285-8.285h17.674z"/>
		<path d="m279.71 446.27c4.573 0 8.285 3.712 8.285 8.285s-3.712 8.285-8.285 8.285h-17.674c-4.573 0-8.285-3.712-8.285-8.285s3.712-8.285 8.285-8.285h17.674z"/>
		<path d="m226.68 446.27c4.573 0 8.285 3.712 8.285 8.285s-3.712 8.285-8.285 8.285h-17.674c-4.573 0-8.285-3.712-8.285-8.285s3.712-8.285 8.285-8.285h17.674z"/>
		<path d="m173.66 446.27c4.573 0 8.285 3.712 8.285 8.285s-3.712 8.285-8.285 8.285h-17.674c-4.573 0-8.285-3.712-8.285-8.285s3.712-8.285 8.285-8.285h17.674z"/>
		<path d="m120.64 446.27c4.573 0 8.285 3.712 8.285 8.285s-3.712 8.285-8.285 8.285h-17.674c-4.573 0-8.285-3.712-8.285-8.285s3.712-8.285 8.285-8.285h17.674z"/>
		<path d="m67.615 446.27c4.573 0 8.285 3.712 8.285 8.285s-3.712 8.285-8.285 8.285h-17.674c-4.573 0-8.285-3.712-8.285-8.285s3.712-8.285 8.285-8.285h17.674z"/>
		<path d="m41.811 127.23c0.221 4.562-3.314 8.439-7.887 8.66-4.12 0.188-7.942 1.723-11.057 4.43-1.569 1.359-3.502 2.021-5.424 2.021-2.32 0-4.628-0.972-6.263-2.861-2.994-3.458-2.629-8.682 0.828-11.687 5.877-5.092 13.388-8.097 21.143-8.462 4.561-0.22 8.45 3.326 8.66 7.899z"/>
		<path d="m22.214 441.24c3.314 3.159 3.435 8.406 0.276 11.709-1.624 1.712-3.811 2.574-5.987 2.574-2.066 0-4.12-0.762-5.722-2.298-5.634-5.369-9.334-12.56-10.439-20.237-0.641-4.529 2.508-8.727 7.037-9.367 4.54-0.641 8.727 2.496 9.378 7.037 0.564 4.009 2.508 7.765 5.457 10.582z"/>
		<path d="m16.57 378.81v17.674c0 4.573-3.712 8.285-8.285 8.285s-8.285-3.712-8.285-8.285v-17.674c0-4.584 3.712-8.285 8.285-8.285s8.285 3.7 8.285 8.285z"/>
		<path d="m16.57 325.79v17.674c0 4.573-3.712 8.285-8.285 8.285s-8.285-3.712-8.285-8.285v-17.674c0-4.584 3.712-8.285 8.285-8.285s8.285 3.701 8.285 8.285z"/>
		<path d="m16.57 272.77v17.674c0 4.573-3.712 8.285-8.285 8.285s-8.285-3.711-8.285-8.284v-17.674c0-4.584 3.712-8.285 8.285-8.285s8.285 3.7 8.285 8.284z"/>
		<path d="m16.57 219.75v17.674c0 4.573-3.712 8.285-8.285 8.285s-8.285-3.712-8.285-8.285v-17.674c0-4.584 3.712-8.285 8.285-8.285s8.285 3.7 8.285 8.285z"/>
		<path d="m16.57 166.72v17.674c0 4.573-3.712 8.285-8.285 8.285s-8.285-3.711-8.285-8.285v-17.674c0-4.584 3.712-8.285 8.285-8.285s8.285 3.701 8.285 8.285z"/>
</g>
</svg>
