<?xml version="1.0" encoding="iso-8859-1"?>
<!-- Generator: Adobe Illustrator 18.0.0, SVG Export Plug-In . SVG Version: 6.00 Build 0)  -->
<!DOCTYPE svg PUBLIC "-//W3C//DTD SVG 1.1//EN" "http://www.w3.org/Graphics/SVG/1.1/DTD/svg11.dtd">
<svg version="1.1" id="Capa_1" xmlns="http://www.w3.org/2000/svg" xmlns:xlink="http://www.w3.org/1999/xlink" x="0px" y="0px"
	 viewBox="0 0 50 50" style="enable-background:new 0 0 50 50;" xml:space="preserve">
<g>
	<path style="fill:#EDE9D9;" d="M44.771,48.5H25.229C22.341,48.5,20,47.159,20,44.271V21.729c0-2.888,2.341-5.229,5.229-5.229
		h19.543c2.888,0,5.229,2.341,5.229,5.229v22.543C50,47.159,47.659,48.5,44.771,48.5z"/>
	<path style="fill:#C4C6C5;" d="M6,29.5c-0.552,0-1-0.447-1-1v-7c0-0.553,0.448-1,1-1s1,0.447,1,1v7C7,29.053,6.552,29.5,6,29.5z"/>
	<ellipse style="fill:#E5DCBE;" cx="6" cy="11.5" rx="6" ry="10"/>
	<circle style="fill:#F09372;" cx="35" cy="32.5" r="11"/>
	<path style="fill:#D1D4D1;" d="M46,16.5H24V9.681C24,8.476,24.976,7.5,26.181,7.5h17.639C45.024,7.5,46,8.476,46,9.681V16.5z"/>
	<g>
		<rect x="28" y="13.5" style="fill:#ECF0F1;" width="2" height="3"/>
		<rect x="32" y="13.5" style="fill:#ECF0F1;" width="2" height="3"/>
		<rect x="36" y="13.5" style="fill:#ECF0F1;" width="2" height="3"/>
		<rect x="40" y="13.5" style="fill:#ECF0F1;" width="2" height="3"/>
	</g>
	<path style="fill:#F3D55B;" d="M34.999,31.5c-0.529,0-0.971-0.415-0.998-0.95c-0.017-0.335-0.119-3.326,1.46-4.985
		C36.124,24.868,37.001,24.5,38,24.5c0.552,0,1,0.447,1,1s-0.448,1-1,1c-0.456,0-0.802,0.141-1.089,0.442
		c-0.843,0.887-0.943,2.88-0.912,3.508c0.028,0.552-0.397,1.021-0.949,1.049C35.033,31.5,35.016,31.5,34.999,31.5z"/>
	<path style="fill:#F7C0BC;" d="M6,48.5L6,48.5c-1.65,0-3-1.35-3-3v-14c0-1.65,1.35-3,3-3h0c1.65,0,3,1.35,3,3v14
		C9,47.15,7.65,48.5,6,48.5z"/>
	<rect x="3" y="40.5" style="fill:#FB7B76;" width="6" height="4"/>
	<path style="fill:#E64C3C;" d="M37.5,29.143c-0.981,0-1.865,0.522-2.5,1.357c-0.635-0.836-1.519-1.357-2.5-1.357
		c-1.933,0-3.5,2.015-3.5,4.5s1.567,4.5,3.5,4.5c0.981,0,1.865-0.522,2.5-1.357c0.635,0.836,1.519,1.357,2.5,1.357
		c1.933,0,3.5-2.015,3.5-4.5S39.433,29.143,37.5,29.143z"/>
</g>
<g>
</g>
<g>
</g>
<g>
</g>
<g>
</g>
<g>
</g>
<g>
</g>
<g>
</g>
<g>
</g>
<g>
</g>
<g>
</g>
<g>
</g>
<g>
</g>
<g>
</g>
<g>
</g>
<g>
</g>
</svg>
